# xmcd CD database file
#
# Track frame offsets:
#	150
#	2220
#	3627
#	6012
#	8770
#	11315
#	12992
#	15496
#	18410
#	20377
#	23948
#	25990
#	28538
#	31446
#	33946
#	35176
#	37228
#	39196
#	41366
#	43346
#	46539
#	48003
#	49517
#	50972
#	54592
#	58013
#	60536
#	62190
#	64242
#	66676
#	69002
#	71613
#	73985
#	76318
#	82600
#	87814
#	90790
#	92859
#	95767
#	97759
#	100011
#	102067
#	104178
#	106270
#	108850
#	111000
#	118479
#	121162
#	123475
#	125704
#	127459
#	130366
#	134772
#	137126
#	139010
#
# Disc length: 1876 seconds
#
# Revision: 0
# Processed by: cddbd v1.5.2PL0 Copyright (c) Steve Scherf et al.
# Submitted via: CDex 1.51
#
DISCID=f5075237
DTITLE=Steve Trovato and Jeremy Arnold - Country Licks for Guitar
DYEAR=2000
DGENRE=Country
TTITLE0=Single-String Pro Lick #1
TTITLE1=Single-String Pro Lick #2
TTITLE2=Single-String Pro Lick #3
TTITLE3=Single-String Pro Lick #4
TTITLE4=Single-String Pro Lick #5
TTITLE5=Single-String Pro Lick #6
TTITLE6=Single-String Pro Lick #7
TTITLE7=Single-String Pro Lick #8
TTITLE8=Single-String Pro Lick #9
TTITLE9=Single-String Pro Lick #10
TTITLE10=Single-String Pro Lick #11
TTITLE11=Pedal-Steel Pro Lick #12
TTITLE12=Pedal-Steel Pro Lick #13
TTITLE13=Pedal-Steel Pro Lick #14
TTITLE14=Pedal-Steel Pro Lick #15
TTITLE15=Pedal-Steel Pro Lick #16
TTITLE16=Pedal-Steel Pro Lick #17
TTITLE17=Pedal-Steel Pro Lick #18
TTITLE18=Open-String Pro Lick #19
TTITLE19=Open-String Pro Lick #20
TTITLE20=Open-String Pro Lick #21
TTITLE21=Open-String Pro Lick #22
TTITLE22=Open-String Pro Lick #23
TTITLE23=Chord Pro Lick #24
TTITLE24=Chord Pro Lick #25
TTITLE25=Chord Pro Lick #26
TTITLE26=Chord Pro Lick #27
TTITLE27=Rockabilly Pro Lick #28
TTITLE28=Rockabilly Pro Lick #29
TTITLE29=Rockabilly Pro Lick #30
TTITLE30=Rockabilly Pro Lick #31
TTITLE31=Rockabilly Pro Lick #32
TTITLE32=Rockabilly Pro Lick #33
TTITLE33=Rockabilly Pro Lick #34
TTITLE34=Rockabilly Pro Lick #35
TTITLE35=Rockabilly Pro Lick #36
TTITLE36=Rockabilly Pro Lick #37
TTITLE37=Funky Country Pro Lick #38
TTITLE38=Funky Country Pro Lick #39
TTITLE39=Funky Country Pro Lick #40
TTITLE40=Funky Country Pro Lick #41
TTITLE41=Funky Country Pro Lick #42
TTITLE42=Funky Country Pro Lick #43
TTITLE43=Funky Country Pro Lick #44
TTITLE44=Funky Country Pro Lick #45
TTITLE45=Funky Country Pro Lick #46
TTITLE46=Funky Country Pro Lick #47
TTITLE47=Funky Country Pro Lick #48
TTITLE48=Funky Country Pro Lick #49
TTITLE49=Funky Country Pro Lick #50
TTITLE50=Funky Country Pro Lick #51
TTITLE51=Funky Country Pro Lick #52
TTITLE52=Funky Country Pro Lick #53
TTITLE53=Funky Country Pro Lick #54
TTITLE54=Funky Country Pro Lick #55
EXTD=YEAR: 2000
EXTT0=
EXTT1=
EXTT2=
EXTT3=
EXTT4=
EXTT5=
EXTT6=
EXTT7=
EXTT8=
EXTT9=
EXTT10=
EXTT11=
EXTT12=
EXTT13=
EXTT14=
EXTT15=
EXTT16=
EXTT17=
EXTT18=
EXTT19=
EXTT20=
EXTT21=
EXTT22=
EXTT23=
EXTT24=
EXTT25=
EXTT26=
EXTT27=
EXTT28=
EXTT29=
EXTT30=
EXTT31=
EXTT32=
EXTT33=
EXTT34=
EXTT35=
EXTT36=
EXTT37=
EXTT38=
EXTT39=
EXTT40=
EXTT41=
EXTT42=
EXTT43=
EXTT44=
EXTT45=
EXTT46=
EXTT47=
EXTT48=
EXTT49=
EXTT50=
EXTT51=
EXTT52=
EXTT53=
EXTT54=
PLAYORDER=
